<svg width="116" height="70" viewBox="0 0 116 70" fill="none" xmlns="http://www.w3.org/2000/svg">
<path d="M57.7827 -0.000240326C33.0313 0.0668526 24.5231 16.1146 24.5231 35.9087C24.5231 38.6616 24.8265 41.3387 25.3882 43.915H29.7619C29.7619 43.915 29.1915 38.097 29.3388 34.9779C29.8582 23.9852 33.0225 15.4245 40.527 10.0908C44.5302 7.24601 50.3759 6.35175 57.7827 6.31234C65.1894 6.35175 71.0366 7.24601 75.0384 10.0908C82.5443 15.4245 85.7086 23.9852 86.2265 34.9779C86.3739 38.097 85.8035 43.915 85.8035 43.915H90.1772C90.7389 41.3387 91.0438 38.6616 91.0438 35.9087C91.0438 16.1146 82.5341 0.0668526 57.7827 -0.000240326Z" fill="#381F3F"/>
<path d="M26.7655 54.0022C27.2207 58.8122 24.9915 62.9262 21.7907 63.1932C18.5885 63.4573 15.6226 59.7721 15.1689 54.9651C14.7137 50.1567 16.9414 46.0455 20.1422 45.7771C23.3459 45.513 26.3104 49.1952 26.7655 54.0022Z" fill="#DDDDE2"/>
<path d="M26.5727 62.7378C26.7259 64.3747 25.4348 65.8219 23.6841 65.9678C21.9349 66.1122 20.3899 64.9028 20.2353 63.2615L18.5503 45.4603C18.3956 43.8205 19.6867 42.3733 21.4359 42.2288C23.1881 42.083 24.733 43.2938 24.8877 44.9336L26.5727 62.7378Z" fill="#FFCC33"/>
<path d="M32.8912 65.5855C33.1013 67.8162 31.3419 69.7871 28.9566 69.984C26.5728 70.181 24.4691 68.5325 24.2605 66.3004L22.0503 42.9407C21.8373 40.7087 23.5996 38.7406 25.982 38.5437C28.3658 38.3453 30.468 39.9923 30.6796 42.2273L32.8912 65.5855Z" fill="#381F3F"/>
<path d="M88.8 54.0022C88.3448 58.8122 90.5725 62.9262 93.7747 63.1932C96.977 63.4573 99.9414 59.7721 100.397 54.9651C100.852 50.1567 98.624 46.0455 95.4218 45.7771C92.2196 45.513 89.2551 49.1952 88.8 54.0022Z" fill="#DDDDE2"/>
<path d="M88.9941 62.7378C88.838 64.3747 90.132 65.8219 91.8812 65.9678C93.6319 66.1122 95.1754 64.9028 95.33 63.2615L97.015 45.4603C97.1711 43.8205 95.8771 42.3733 94.1279 42.2288C92.3772 42.083 90.8308 43.2938 90.6762 44.9336L88.9941 62.7378Z" fill="#FFCC33"/>
<path d="M82.6757 65.5855C82.4642 67.8162 84.2236 69.7871 86.6074 69.984C88.9927 70.181 91.0949 68.5325 91.305 66.3004L93.5166 42.9407C93.7253 40.7087 91.9659 38.7406 89.5821 38.5437C87.1997 38.3453 85.096 39.9923 84.8844 42.2273L82.6757 65.5855Z" fill="#381F3F"/>
<path d="M46.1965 52.0589L44.4283 46.1767L42.612 52.0589H46.1965ZM47.5955 56.8236H41.1385L40.2559 59.6655H34.4116L41.6798 39.5476H47.5226L54.5194 59.6655H48.4563L47.5955 56.8236Z" fill="#FF2A54"/>
<path d="M62.3737 48.7879V52.8057H55.4994V48.7879H62.3737Z" fill="#381F3F"/>
<path d="M79.7041 39.5476V43.7083L71.6759 54.5565H79.8763V59.6655H64.0897V55.5033L72.1179 44.6551H64.3844V39.5476H79.7041Z" fill="#1DB1F9"/>
<path d="M106.871 47.0955C106.391 47.2763 105.841 46.9656 105.644 46.4025C105.446 45.8379 105.675 45.2354 106.155 45.0545L112.561 42.64C113.041 42.4591 113.589 42.7699 113.788 43.333C113.985 43.8961 113.756 44.5001 113.276 44.681L106.871 47.0955Z" fill="#FFCC33"/>
<path d="M107.794 56.3857C107.284 56.3697 106.886 55.8693 106.903 55.2696C106.922 54.6701 107.351 54.1989 107.861 54.2149L114.673 54.4395C115.184 54.4571 115.583 54.956 115.564 55.5556C115.545 56.1552 115.118 56.6279 114.606 56.6104L107.794 56.3857Z" fill="#FFCC33"/>
<path d="M105.78 63.2133C105.344 62.9376 104.747 63.1287 104.445 63.6408C104.145 64.1529 104.254 64.7918 104.69 65.0676L110.508 68.7469C110.945 69.0226 111.541 68.8315 111.843 68.3194C112.144 67.8074 112.036 67.1683 111.598 66.8926L105.78 63.2133Z" fill="#FFCC33"/>
<path d="M8.69556 47.0955C9.17553 47.2763 9.72408 46.9656 9.92249 46.4025C10.1194 45.8379 9.89042 45.2354 9.41044 45.0545L3.00593 42.64C2.52595 42.4591 1.97594 42.7699 1.77753 43.333C1.58058 43.8961 1.80965 44.5001 2.28962 44.681L8.69556 47.0955Z" fill="#FFCC33"/>
<path d="M7.77055 56.3857C8.28116 56.3697 8.67947 55.8693 8.66196 55.2696C8.643 54.6701 8.21406 54.1989 7.70346 54.2149L0.891922 54.4395C0.381313 54.4571 -0.0169509 54.956 0.000555719 55.5556C0.0195212 56.1552 0.448407 56.6279 0.959016 56.6104L7.77055 56.3857Z" fill="#FFCC33"/>
<path d="M9.78556 63.2133C10.2218 62.9376 10.8199 63.1287 11.1205 63.6408C11.421 64.1529 11.313 64.7918 10.8768 65.0676L5.0588 68.7469C4.62259 69.0226 4.02443 68.8315 3.72244 68.3194C3.42191 67.8074 3.53132 67.1683 3.96753 66.8926L9.78556 63.2133Z" fill="#FFCC33"/>
<path d="M50.2969 21.6074H45.9174V27.5728H50.2969L55.1769 32.8276V16.3525L50.2969 21.6074Z" fill="#FFCC33"/>
<path d="M57.4424 18.0873C58.9888 19.8671 59.9327 22.232 59.9327 24.8288C59.9327 27.201 59.1434 29.3776 57.8304 31.0933C59.778 29.7088 61.0575 27.3702 61.0575 24.718C61.0575 21.8936 59.6059 19.4251 57.4424 18.0873Z" fill="#FFCC33"/>
<path d="M60.4669 15.9602C62.5196 18.3206 63.7713 21.4601 63.7713 24.9075C63.7713 28.0543 62.7253 30.9429 60.9819 33.2202C63.567 31.3835 65.2667 28.2804 65.2667 24.7601C65.2667 21.0108 63.338 17.7371 60.4669 15.9602Z" fill="#FFCC33"/>
<path d="M63.3176 13.2073C66.0253 16.322 67.6768 20.4623 67.6768 25.0082C67.6768 29.1587 66.2967 32.9707 63.9975 35.9731C67.4069 33.5514 69.6477 29.4563 69.6477 24.8142C69.6477 19.87 67.1049 15.5502 63.3176 13.2073Z" fill="#FFCC33"/>
</svg>
