<svg width="160" height="24" viewBox="0 0 160 24" fill="none" xmlns="http://www.w3.org/2000/svg">
<path d="M0 21.5673H13.4763V17.6146H4.1649V0.875423L0 2.20183V21.5673Z" fill="#462A69"/>
<path d="M22.9458 21.6734C23.9804 21.6734 24.9884 21.4612 25.9434 21.0368C26.8719 20.6389 27.6943 20.0552 28.384 19.339L25.572 16.6862C24.8823 17.429 23.9538 17.8269 22.9458 17.8269C21.6459 17.8269 20.5052 17.1371 19.8685 16.1291H30.4001V14.1925C30.4001 12.2029 29.6308 10.3194 28.2248 8.91344C26.8189 7.50745 24.9354 6.71161 22.9458 6.71161C20.9296 6.71161 19.0727 7.50745 17.6401 8.91344C16.2342 10.3194 15.4648 12.2029 15.4648 14.1925C15.4648 16.1821 16.2342 18.0656 17.6401 19.4716C19.0727 20.8776 20.9296 21.6734 22.9458 21.6734V21.6734ZM19.8685 12.2825C20.5052 11.2479 21.6459 10.5582 22.9458 10.5582C24.2191 10.5582 25.3598 11.2479 26.023 12.2825H19.8685Z" fill="#462A69"/>
<path d="M43.6123 6.63202L43.6389 7.48092C42.5778 6.95035 41.4105 6.65855 40.2168 6.65855C39.2087 6.65855 38.2006 6.84424 37.2721 7.24216C36.3702 7.64009 35.5743 8.17065 34.8581 8.86038C34.1684 9.55011 33.6378 10.3725 33.2399 11.2744C32.8685 12.2029 32.6562 13.211 32.6562 14.2191C32.6562 15.2271 32.8685 16.2352 33.2399 17.1637C33.6378 18.0656 34.1684 18.8615 34.8581 19.5777C35.5743 20.2675 36.3702 20.798 37.2721 21.1959C38.2006 21.5673 39.2087 21.7796 40.2168 21.7796C41.4105 21.7796 42.5778 21.4877 43.6389 20.9572L43.6123 21.5673H47.5916V6.63202H43.6123ZM42.0207 17.2963C41.4901 17.6146 40.8534 17.8003 40.2168 17.8003C38.2537 17.8003 36.6355 16.1821 36.6355 14.2191C36.6355 12.256 38.2537 10.6378 40.2168 10.6378C40.9065 10.6378 41.5962 10.8235 42.1533 11.2214C42.7369 11.5662 43.1879 12.0968 43.4532 12.707C43.6919 13.1845 43.7981 13.6885 43.7981 14.2191C43.7981 14.8557 43.6389 15.4659 43.3205 16.023C43.0022 16.5535 42.5778 17.0045 42.0207 17.2963Z" fill="#462A69"/>
<path d="M55.7321 21.5673V15.0414C55.7321 12.4947 57.8013 10.399 60.3746 10.399V6.4198C59.2073 6.4198 58.0666 6.65855 57.0055 7.10953C55.9974 7.53398 55.0689 8.17065 54.2731 8.9665C53.4773 9.73581 52.8671 10.6643 52.4161 11.6989C51.9652 12.76 51.7529 13.8742 51.7529 15.0414V21.5673H55.7321Z" fill="#462A69"/>
<path d="M74.7498 8.99302C73.4765 7.7462 71.8052 7.05647 70.0279 7.05647C69.0728 7.05647 68.1709 7.24216 67.3485 7.61356V6.63202H63.3693V13.1314C63.3428 13.3436 63.3428 13.5293 63.3428 13.7415H63.3693V21.5673H67.3485V13.3436C67.5342 12.0437 68.6484 11.0357 70.0279 11.0357C71.5134 11.0357 72.7337 12.256 72.7337 13.7415V21.5673H76.7129V13.7415C76.7129 11.9376 75.9967 10.2664 74.7498 8.99302V8.99302Z" fill="#462A69"/>
<path d="M91.6474 21.5673H95.0164L100.11 6.79119H95.9184L93.3717 14.4843L90.9576 6.79119H87.7477L85.3867 14.4843L82.8135 6.79119H78.6221L83.742 21.5673H87.0315L89.3394 14.2456L91.6474 21.5673Z" fill="#462A69"/>
<path d="M123.953 21.5673V15.0414C123.953 12.4947 126.022 10.399 128.595 10.399V6.4198C127.428 6.4198 126.287 6.65855 125.226 7.10953C124.218 7.53398 123.29 8.17065 122.494 8.9665C121.698 9.73581 121.088 10.6643 120.637 11.6989C120.186 12.76 119.974 13.8742 119.974 15.0414V21.5673H123.953Z" fill="#462A69"/>
<path d="M130.881 17.1371C131.279 18.0391 131.81 18.8615 132.5 19.5512C133.216 20.2409 134.012 20.798 134.914 21.1694C135.842 21.5673 136.85 21.753 137.858 21.753C138.866 21.753 139.874 21.5673 140.803 21.1694C141.705 20.798 142.501 20.2409 143.217 19.5512C143.907 18.8615 144.437 18.0391 144.835 17.1371C145.233 16.2087 145.419 15.2271 145.419 14.1925V1.3264L141.44 0V7.53398C141.227 7.42786 141.015 7.32175 140.803 7.24217C139.874 6.84425 138.893 6.65855 137.858 6.65855C136.85 6.65855 135.842 6.84425 134.914 7.24217C134.012 7.61356 133.216 8.17065 132.5 8.86038C131.81 9.55011 131.279 10.3725 130.881 11.2744C130.51 12.2029 130.298 13.1845 130.298 14.1925C130.298 15.2271 130.51 16.2087 130.881 17.1371V17.1371ZM137.858 10.6112C139.821 10.6112 141.44 12.2294 141.44 14.1925C141.44 16.1821 139.821 17.7738 137.858 17.7738C135.895 17.7738 134.277 16.1821 134.277 14.1925C134.277 12.2294 135.895 10.6112 137.858 10.6112Z" fill="#462A69"/>
<path d="M155.145 21.7265C157.824 21.7265 160 19.5512 160 16.8719C160 14.1925 157.824 12.0172 155.145 12.0172H154.031C153.633 12.0172 153.341 11.6989 153.341 11.3275C153.341 10.9296 153.633 10.6112 154.031 10.6112H159.575V6.44631H154.031C151.352 6.44631 149.176 8.64814 149.176 11.3275C149.176 14.0068 151.352 16.1821 154.031 16.1821H155.145C155.516 16.1821 155.835 16.5005 155.835 16.8719C155.835 17.2698 155.516 17.5616 155.145 17.5616H148.938V21.7265H155.145Z" fill="#462A69"/>
<path d="M109.2 7.13334C104.968 7.13334 101.533 10.568 101.533 14.8C101.533 19.032 104.968 22.4667 109.2 22.4667C113.432 22.4667 116.867 19.032 116.867 14.8C116.867 10.568 113.432 7.13334 109.2 7.13334ZM107.667 18.6333L103.833 14.8L104.914 13.719L107.667 16.4637L113.486 10.6447L114.567 11.7333L107.667 18.6333Z" fill="#F26B80"/>
</svg>
