<svg xmlns:dc="http://purl.org/dc/elements/1.1/" xmlns:cc="http://creativecommons.org/ns#" xmlns:rdf="http://www.w3.org/1999/02/22-rdf-syntax-ns#" xmlns:svg="http://www.w3.org/2000/svg" xmlns="http://www.w3.org/2000/svg" xmlns:xlink="http://www.w3.org/1999/xlink" id="svg37234" viewBox="0 0 1024 768" height="768px" width="1024px" version="1.1">
  <metadata id="metadata37240">
    <rdf:rdf>
      <cc:work rdf:about="">
        <dc:format>image/svg+xml</dc:format>
        <dc:type rdf:resource="http://purl.org/dc/dcmitype/StillImage"></dc:type>
      </cc:work>
    </rdf:rdf>
  </metadata>
  <defs id="defs37238"></defs>
  <linearGradient spreadMethod="pad" y2="30%" x2="-10%" y1="120%" x1="30%" id="3d_gradient2-logo-1532dbc8-ae68-4da2-9f54-ee4964666b7c">
    <stop id="stop37215" stop-opacity="1" stop-color="#ffffff" offset="0%"></stop>
    <stop id="stop37217" stop-opacity="1" stop-color="#000000" offset="100%"></stop>
  </linearGradient>
  <linearGradient gradientTransform="rotate(-30)" spreadMethod="pad" y2="30%" x2="-10%" y1="120%" x1="30%" id="3d_gradient3-logo-1532dbc8-ae68-4da2-9f54-ee4964666b7c">
    <stop id="stop37220" stop-opacity="1" stop-color="#ffffff" offset="0%"></stop>
    <stop id="stop37222" stop-opacity="1" stop-color="#cccccc" offset="50%"></stop>
    <stop id="stop37224" stop-opacity="1" stop-color="#000000" offset="100%"></stop>
  </linearGradient>
  <g id="logo-group">
    <image xlink:href="" id="container" x="272" y="144" width="480" height="480" transform="translate(0 0)" style="display: none;"></image>
    <g id="logo-center" transform="translate(0 0)">
      <image xlink:href="" id="icon_container" x="0" y="0" style="display: none;"></image>
      <g id="slogan" style="font-style:normal;font-weight:400;font-size:32px;line-height:1;font-family:Montserrat;font-variant-ligatures:none;text-align:center;text-anchor:middle" transform="translate(0 0)"></g>
      <g id="title" style="font-style:normal;font-weight:700;font-size:72px;line-height:1;font-family:'Brandmark1 Bold';font-variant-ligatures:normal;text-align:center;text-anchor:middle" transform="translate(0 0)">
        <path id="path37243" style="font-style:normal;font-weight:700;font-size:72px;line-height:1;font-family:'Brandmark1 Bold';font-variant-ligatures:normal;text-align:center;text-anchor:middle" d="m 334.39963,2.52 h 10.87199 v -58.032 l -10.87199,3.6 z" stroke-width="0" stroke-linejoin="miter" stroke-miterlimit="2" fill="#658697" stroke="#658697" transform="translate(0 307.09000000000003) translate(215.9961874999999 44.952799999999996) scale(1.1) translate(-334.39963 55.512)"></path>
        <path id="path37245" style="font-style:normal;font-weight:700;font-size:72px;line-height:1;font-family:'Brandmark1 Bold';font-variant-ligatures:normal;text-align:center;text-anchor:middle" d="m 368.60975,2.808 c 2.808,0 5.544,-0.576 8.136,-1.728 2.52,-1.08 4.752,-2.664 6.624,-4.608 l -7.632,-7.2 c -1.872,2.016 -4.392,3.096 -7.128,3.096 -3.528,0 -6.624,-1.872 -8.352,-4.608 h 28.584 v -5.256 c 0,-5.4 -2.088,-10.512 -5.904,-14.328 -3.816,-3.816 -8.928,-5.976 -14.328,-5.976 -5.472,0 -10.512,2.16 -14.4,5.976 -3.816,3.816 -5.904,8.928 -5.904,14.328 0,5.4 2.088,10.512 5.904,14.328 3.888,3.816 8.928,5.976 14.4,5.976 z m -8.352,-25.488 c 1.728,-2.808 4.824,-4.68 8.352,-4.68 3.456,0 6.552,1.872 8.352,4.68 z" stroke-width="0" stroke-linejoin="miter" stroke-miterlimit="2" fill="#658697" stroke="#658697" transform="translate(0 307.09000000000003) translate(253.29291949999993 64.436) scale(1.1) translate(-348.30575 37.8)"></path>
        <path id="path37247" style="font-style:normal;font-weight:700;font-size:72px;line-height:1;font-family:'Brandmark1 Bold';font-variant-ligatures:normal;text-align:center;text-anchor:middle" d="m 418.70262,-38.016 0.072,2.304 c -2.88,-1.44 -6.048,-2.232 -9.28801,-2.232 -2.73599,0 -5.47199,0.504 -7.992,1.584 -2.448,1.08 -4.608,2.52 -6.55199,4.392 -1.87201,1.872 -3.31201,4.104 -4.392,6.552 -1.00801,2.52 -1.584,5.256 -1.584,7.992 0,2.736 0.57599,5.472 1.584,7.992 1.07999,2.448 2.51999,4.608 4.392,6.552 1.94399,1.872 4.10399,3.312 6.55199,4.392 2.52001,1.008 5.25601,1.584 7.992,1.584 3.24001,0 6.40801,-0.792 9.28801,-2.232 l -0.072,1.656 h 10.80001 v -40.536 z m -4.31999,28.944 c -1.44,0.864 -3.16801,1.368 -4.89601,1.368 -5.32799,0 -9.72,-4.392 -9.72,-9.72 0,-5.328 4.39201,-9.72 9.72,-9.72 1.87201,0 3.74401,0.504 5.256,1.584 1.584,0.936 2.80801,2.376 3.528,4.032 0.64801,1.296 0.936,2.664 0.936,4.104 0,1.728 -0.43199,3.384 -1.296,4.896 -0.864,1.44 -2.01599,2.664 -3.52799,3.456 z" stroke-width="0" stroke-linejoin="miter" stroke-miterlimit="2" fill="#658697" stroke="#658697" transform="translate(0 307.09000000000003) translate(320.01987649999995 64.19839999999999) scale(1.1) translate(-388.96662 38.016)"></path>
        <path id="path37249" style="font-style:normal;font-weight:700;font-size:72px;line-height:1;font-family:'Brandmark1 Bold';font-variant-ligatures:normal;text-align:center;text-anchor:middle" d="m 445.59575,2.52 v 0 -17.712 c 0,-6.912 5.616,-12.6 12.6,-12.6 v -10.8 c -3.168,0 -6.264,0.648 -9.144,1.872 -2.736,1.152 -5.256,2.88 -7.416,5.04 -2.16,2.088 -3.816,4.608 -5.04,7.416 -1.224,2.88 -1.8,5.904 -1.8,9.072 V 2.52 Z" stroke-width="0" stroke-linejoin="miter" stroke-miterlimit="2" fill="#658697" stroke="#658697" transform="translate(0 307.09000000000003) translate(392.4319195 63.5648) scale(1.1) translate(-434.79575 38.592)"></path>
        <path id="path37251" style="font-style:normal;font-weight:700;font-size:72px;line-height:1;font-family:'Brandmark1 Bold';font-variant-ligatures:normal;text-align:center;text-anchor:middle" d="m 491.20887,-31.608 c -3.45599,-3.384 -7.99199,-5.256 -12.816,-5.256 -2.59199,0 -5.04,0.504 -7.272,1.512 v -2.664 h -10.8 v 17.64 c -0.072,0.576 -0.072,1.08 -0.072,1.656 h 0.072 V 2.52 h 10.8 V -19.8 c 0.504,-3.528 3.528,-6.264 7.272,-6.264 4.032,0 7.344,3.312 7.344,7.344 V 2.52 h 10.8 v -21.24 c 0,-4.896 -1.944,-9.432 -5.328,-12.888 z" stroke-width="0" stroke-linejoin="miter" stroke-miterlimit="2" fill="#658697" stroke="#658697" transform="translate(0 307.09000000000003) translate(442.43035150000003 64.19839999999999) scale(1.1) translate(-460.24887 38.016)"></path>
        <path id="path37253" style="font-style:normal;font-weight:700;font-size:72px;line-height:1;font-family:'Brandmark1 Bold';font-variant-ligatures:normal;text-align:center;text-anchor:middle" d="m 531.071,2.52 h 9.144 l 13.824,-40.104 h -11.376 l -6.912,20.88 -6.552,-20.88 h -8.712 l -6.408,20.88 -6.984,-20.88 H 495.719 L 509.615,2.52 h 8.928 l 6.264,-19.872 z" stroke-width="0" stroke-linejoin="miter" stroke-miterlimit="2" fill="#658697" stroke="#658697" transform="translate(0 307.09000000000003) translate(503.4474945 64.6736) scale(1.1) translate(-495.719 37.584)"></path>
        <path id="path37255" style="font-style:normal;font-weight:700;font-size:72px;line-height:1;font-family:'Brandmark1 Bold';font-variant-ligatures:normal;text-align:center;text-anchor:middle" d="m 571.562,3.024 c 2.736,0 5.472,-0.576 7.992,-1.584 2.448,-1.08 4.68,-2.52 6.552,-4.392 1.872,-1.944 3.312,-4.104 4.392,-6.552 1.08,-2.52 1.584,-5.256 1.584,-7.992 0,-2.808 -0.504,-5.472 -1.584,-7.992 -1.08,-2.448 -2.52,-4.68 -4.392,-6.552 -1.944,-1.872 -4.104,-3.312 -6.552,-4.392 -2.52,-1.08 -5.256,-1.584 -7.992,-1.584 -2.736,0 -5.472,0.504 -7.992,1.584 -2.448,1.08 -4.608,2.52 -6.552,4.392 -1.872,1.944 -3.312,4.104 -4.392,6.552 -1.008,2.52 -1.584,5.184 -1.584,7.992 0,2.736 0.576,5.472 1.584,7.992 1.08,2.448 2.52,4.608 4.392,6.552 1.944,1.872 4.104,3.312 6.552,4.392 2.52,1.008 5.256,1.584 7.992,1.584 z m 0,-30.24 c 5.328,0 9.72,4.392 9.72,9.72 0,5.328 -4.392,9.72 -9.72,9.72 -5.328,0 -9.72,-4.392 -9.72,-9.72 0,-5.328 4.392,-9.72 9.72,-9.72 z" stroke-width="0" stroke-linejoin="miter" stroke-miterlimit="2" fill="#658697" stroke="#658697" transform="translate(0 307.09000000000003) translate(586.3027945 64.19839999999999) scale(1.1) translate(-551.042 38.016)"></path>
        <path id="path37257" style="font-style:normal;font-weight:700;font-size:72px;line-height:1;font-family:'Brandmark1 Bold';font-variant-ligatures:normal;text-align:center;text-anchor:middle" d="m 606.752,2.52 v 0 -17.712 c 0,-6.912 5.616,-12.6 12.6,-12.6 v -10.8 c -3.168,0 -6.264,0.648 -9.144,1.872 -2.736,1.152 -5.256,2.88 -7.416,5.04 -2.16,2.088 -3.816,4.608 -5.04,7.416 -1.224,2.88 -1.8,5.904 -1.8,9.072 V 2.52 Z" stroke-width="0" stroke-linejoin="miter" stroke-miterlimit="2" fill="#658697" stroke="#658697" transform="translate(0 307.09000000000003) translate(657.7037945000001 63.5648) scale(1.1) translate(-595.952 38.592)"></path>
        <path id="path37259" style="font-style:normal;font-weight:700;font-size:72px;line-height:1;font-family:'Brandmark1 Bold';font-variant-ligatures:normal;text-align:center;text-anchor:middle" d="m 619.56012,-9.504 c 1.08,2.448 2.52,4.68 4.39201,6.552 1.94399,1.872 4.10399,3.384 6.552,4.392 2.52,1.08 5.256,1.584 7.99199,1.584 2.736,0 5.472,-0.504 7.992,-1.584 2.448,-1.008 4.60801,-2.52 6.552,-4.392 1.87201,-1.872 3.312,-4.104 4.39201,-6.552 1.07999,-2.52 1.58399,-5.184 1.58399,-7.992 v -34.92 l -10.79999,-3.6 v 20.448 c -0.57601,-0.288 -1.15201,-0.576 -1.72801,-0.792 -2.52,-1.08 -5.184,-1.584 -7.992,-1.584 -2.73599,0 -5.47199,0.504 -7.99199,1.584 -2.44801,1.008 -4.60801,2.52 -6.552,4.392 -1.87201,1.872 -3.31201,4.104 -4.39201,6.552 -1.00799,2.52 -1.58399,5.184 -1.58399,7.92 0,2.808 0.576,5.472 1.58399,7.992 z m 18.936,-17.712 c 5.328,0 9.72001,4.392 9.72001,9.72 0,5.4 -4.39201,9.72 -9.72001,9.72 -5.32799,0 -9.72,-4.32 -9.72,-9.72 0,-5.328 4.39201,-9.72 9.72,-9.72 z" stroke-width="0" stroke-linejoin="miter" stroke-miterlimit="2" fill="#658697" stroke="#658697" transform="translate(0 307.09000000000003) translate(703.9303375000002 44.398399999999995) scale(1.1) translate(-617.97613 56.016)"></path>
        <path id="path37261" style="font-style:normal;font-weight:700;font-size:72px;line-height:1;font-family:'Brandmark1 Bold';font-variant-ligatures:normal;text-align:center;text-anchor:middle" d="m 679.41237,2.952 c 7.27201,0 13.17601,-5.904 13.17601,-13.176 0,-7.272 -5.904,-13.176 -13.17601,-13.176 h -3.024 c -1.08,0 -1.87199,-0.864 -1.87199,-1.872 0,-1.08 0.79199,-1.944 1.87199,-1.944 h 15.048 V -38.52 h -15.048 c -7.272,0 -13.176,5.976 -13.176,13.248 0,7.272 5.904,13.176 13.176,13.176 h 3.024 c 1.00801,0 1.872,0.864 1.872,1.872 0,1.08 -0.86399,1.872 -1.872,1.872 H 662.56438 V 2.952 Z" stroke-width="0" stroke-linejoin="miter" stroke-miterlimit="2" fill="#658697" stroke="#658697" transform="translate(0 307.09000000000003) translate(774.9774125000002 63.64399999999999) scale(1.1) translate(-662.56438 38.52)"></path>
      </g>
      <image xlink:href="" id="icon" x="0" y="0" style="display: none;"></image>
    </g>
  </g>
</svg>