<svg width="106" height="90" viewBox="0 0 106 90" fill="none" xmlns="http://www.w3.org/2000/svg">
<path d="M92.5561 46.8393C92.5561 44.8231 91.7177 42.9956 90.3612 41.6461C91.2356 40.4364 91.7496 38.9712 91.7496 37.3912C91.7496 34.7004 90.2594 32.3458 88.0267 31.0184L88.0387 30.8068C88.0387 27.7296 86.0954 25.0886 83.3157 23.9259C82.1678 21.1269 79.3163 19.1405 75.9706 19.1405C75.8159 19.1405 75.6642 19.1543 75.5115 19.1625C74.9376 16.2883 72.2896 14.1144 69.1047 14.1144C65.5295 14.1144 62.629 16.8542 62.5821 20.2497H62.5781V63.9696H62.5881C62.6889 68.6348 66.9767 72.3916 72.2597 72.3916C75.2939 72.3916 77.9988 71.151 79.7744 69.2137C80.3114 69.3244 80.8683 69.3853 81.4402 69.3853C85.7969 69.3853 89.3292 66.0207 89.3292 61.8696C89.3292 61.4025 89.2783 60.9484 89.1925 60.5052C91.2246 59.1448 92.5561 56.9001 92.5561 54.3549C92.5561 52.9846 92.1648 51.703 91.4921 50.5971C92.1648 49.4902 92.5561 48.2097 92.5561 46.8393Z" fill="#FF2A54"/>
<path d="M67.8925 63.5455C67.5332 62.4925 67.633 61.3317 68.188 60.0811C68.4694 60.2807 68.7838 60.4204 69.1421 60.4613C69.232 60.4703 69.3198 60.4763 69.4096 60.4763C71.3659 60.4763 73.6785 58.2346 73.947 57.9691L73.1755 57.1886C72.5127 57.8443 70.5085 59.4972 69.2639 59.3704C69.0503 59.3464 68.8806 59.2447 68.7279 59.1049C68.7908 59.0001 68.8297 58.9003 68.8996 58.7945C73.0577 52.4696 72.881 51.5333 69.8957 48.563L69.5593 48.2286L68.7838 49.0041L69.1222 49.3405C71.6294 51.8358 71.9518 52.1552 67.9823 58.1897C66.7726 60.0322 66.3874 61.7639 66.7477 63.3638C66.5141 63.3039 66.2766 63.272 66.0301 63.2989C64.8683 63.3698 64.1357 64.33 64.1057 64.3729L64.984 65.0287C64.988 65.0237 65.4472 64.4328 66.0969 64.3939C66.5211 64.3709 66.9663 64.5955 67.4174 65.0536C68.8846 67.3652 71.7801 68.3813 71.9188 68.4292L72.2752 67.3922C72.2402 67.3792 68.7878 66.1665 67.8925 63.5455Z" fill="white"/>
<path d="M78.6051 39.258C77.9863 41.9419 78.8297 43.5957 79.9705 44.7346C79.0034 45.6279 77.9563 46.053 77.2507 45.7536C76.542 45.4532 76.2057 44.4381 76.3045 42.8901C76.3853 41.5726 76.027 40.4627 75.2365 39.5923C73.6615 37.8546 70.9357 37.7409 70.8199 37.7359L70.781 38.8338C70.805 38.8338 73.1685 38.9386 74.4291 40.3339C75.01 40.9747 75.2715 41.8121 75.2066 42.8222C75.0349 45.584 76.1458 46.4782 76.8225 46.7647C77.112 46.8875 77.4244 46.9453 77.7527 46.9453C78.7249 46.9453 79.8208 46.3994 80.8079 45.4542C81.2162 45.7626 81.6274 46.0361 81.9977 46.2746C82.4029 46.5341 82.7822 46.7757 83.0846 47.0292C83.8651 47.678 84.7694 48.6661 84.6366 49.6771C84.5139 50.6203 83.4808 51.5676 81.6513 52.4189C81.3988 52.5357 81.1962 52.6694 80.9796 52.7982C80.1921 51.2951 79.2539 50.4058 78.166 50.2241C76.6039 49.9816 75.4341 51.2083 75.3842 51.2592L76.1857 52.0097C76.1947 52.0007 77.0002 51.1563 77.9863 51.3061C78.7409 51.4318 79.4625 52.1904 80.0923 53.455C79.5134 53.9979 79.1521 54.6088 79.0752 55.3014C78.8267 57.5432 81.4367 59.5743 81.5485 59.6602L82.2172 58.7898C81.5954 58.3097 80.0134 56.7716 80.1661 55.4212C80.252 54.6497 80.9077 53.972 82.1144 53.413C84.3322 52.382 85.5469 51.1733 85.7246 49.8189C85.8813 48.6102 85.2305 47.3885 83.7873 46.1838C83.4539 45.9053 83.0377 45.6378 82.5915 45.3504C80.8498 44.2315 78.8756 42.9649 79.6731 39.5065L78.6051 39.258Z" fill="white"/>
<path d="M84.9429 38.9109C84.4199 38.0555 84.6764 36.5664 85.6865 34.6031C86.5569 32.9083 86.6866 31.4232 86.0718 30.1905C85.0368 28.1144 82.279 27.6144 82.1632 27.5954L81.9746 28.6754C81.9975 28.6804 84.3081 29.1065 85.0927 30.6835C85.43 31.3633 85.439 32.1847 85.1236 33.1309C84.1784 32.3663 83.2571 32.0529 82.3648 32.2246C80.5882 32.572 79.7588 34.7079 79.7239 34.7987L80.7489 35.188C80.7549 35.171 81.4087 33.5301 82.5745 33.3026C83.2013 33.1738 83.9019 33.4932 84.6695 34.1919C83.5037 36.5005 83.2751 38.2841 84.0067 39.4828C84.8072 40.7943 86.4321 40.936 87.0939 40.936V39.8391C86.6188 39.8391 85.455 39.7493 84.9429 38.9109Z" fill="white"/>
<path d="M88.087 45.981L87.3774 46.8164C87.3943 46.8294 88.9693 48.1968 88.9733 49.9455C88.9763 50.9635 88.4383 51.9466 87.3754 52.8639L88.091 53.6953C89.4105 52.5555 90.0772 51.2909 90.0712 49.9325C90.0602 47.6758 88.1679 46.0469 88.087 45.981Z" fill="white"/>
<path d="M65.6413 28.1187L66.302 27.2403C65.824 26.882 65.0265 26.2841 65.0993 25.6643C65.1462 25.2531 65.6223 24.3917 68.2563 23.2449C70.1787 22.4075 71.1768 21.4064 71.2267 20.2684C71.3015 18.5904 69.2954 17.4459 69.0688 17.3216L68.5408 18.2861C68.966 18.5175 70.1677 19.3683 70.1318 20.2214C70.1018 20.8942 69.3023 21.5928 67.8192 22.2378C65.3908 23.2938 64.1461 24.3748 64.0084 25.5385C63.8627 26.7832 65.0205 27.6515 65.6413 28.1187Z" fill="white"/>
<path d="M76.0315 28.7872C75.8359 29.2992 74.8957 30.1396 70.8215 29.963C67.7693 29.8462 66.0036 30.3023 65.296 31.4142C64.4286 32.7866 65.4227 34.691 66.3849 36.5325C67.7054 39.0587 68.3961 40.6536 66.872 41.4591L67.386 42.4272C69.983 41.0538 68.5288 38.2662 67.358 36.0244C66.5396 34.4574 65.6932 32.8395 66.2242 32.0041C66.5266 31.525 67.5048 30.998 70.3484 31.0549C69.9701 32.4193 70.0489 33.3595 70.6478 33.8635C70.9582 34.125 71.3504 34.2238 71.7597 34.2238C72.7797 34.2238 73.9116 33.622 74.197 33.4593L73.6571 32.5031C72.9414 32.9103 71.7148 33.3305 71.3554 33.0241C71.1538 32.8554 71.1139 32.2326 71.4802 31.0729C74.721 31.1228 76.5545 30.4989 77.0576 29.1774C77.2981 28.5436 77.1614 27.85 76.862 27.1693C77.4109 27.0675 77.894 26.8709 78.2343 26.4786C79.2245 25.3448 78.8302 23.4384 78.8132 23.3585L77.7413 23.5861C77.7433 23.6011 78.0307 25.0453 77.4069 25.759C77.1644 26.0344 76.7701 26.1462 76.2831 26.1482C75.3947 24.8577 74.1421 23.7887 73.9076 23.5961L73.2129 24.4455C74.5314 25.5234 76.4617 27.6553 76.0315 28.7872Z" fill="white"/>
<path d="M67.5689 52.2731L67.6607 51.1802C67.5859 51.1692 65.7683 51.0295 64.9778 52.2532C64.373 53.1874 64.5766 54.5767 65.5817 56.3833L66.5418 55.8473C65.7723 54.467 65.5437 53.404 65.8971 52.854C66.2574 52.2961 67.2235 52.2362 67.5689 52.2731Z" fill="white"/>
<path d="M69.9188 25.9644C68.9626 26.5882 69.0524 28.0195 69.0654 28.1802L70.1593 28.0924C70.1354 27.7879 70.1933 27.0943 70.5186 26.8837C70.7821 26.717 71.3331 26.8278 72.0208 27.205L72.5488 26.2409C71.4449 25.643 70.5636 25.5512 69.9188 25.9644Z" fill="white"/>
<path d="M69.542 46.1441C71.623 46.3966 72.8836 46.0542 73.3907 45.1021C74.0614 43.8464 72.9535 42.0998 72.5123 41.5857L71.6809 42.3014C72.0372 42.7146 72.7569 43.9622 72.4225 44.586C72.167 45.0641 71.1729 45.2368 69.6727 45.0551C67.6007 44.8066 66.1604 45.1539 65.4019 46.0862C64.4776 47.219 64.9687 48.7281 64.9906 48.791L66.0317 48.4437C66.0277 48.4327 65.7163 47.4386 66.2522 46.7778C66.7493 46.163 67.8901 45.9445 69.542 46.1441Z" fill="white"/>
<path d="M81.2796 64.0747C80.7566 64.1796 80.2496 64.1656 79.7765 64.0888C80.2156 63.429 80.3833 62.7323 80.2596 62.0087C79.8893 59.8448 77.0147 58.3287 76.893 58.2668L76.3869 59.24C77.0856 59.6043 78.948 60.8449 79.1776 62.1953C79.2684 62.7303 79.0678 63.2443 78.6267 63.7634C77.7264 63.403 77.1175 62.9249 77.1075 62.915L76.8351 62.6924L76.5207 62.8471C73.8028 64.1626 72.5921 62.5766 72.5402 62.5107L71.6489 63.1495C71.6659 63.1745 73.3307 65.4342 76.6933 63.974C77.2852 64.3852 78.7364 65.2495 80.4871 65.2495C80.8105 65.2495 81.1429 65.2216 81.4832 65.1527C83.2918 64.7954 84.8179 63.4729 86.0226 61.2202L85.0534 60.7022C84.0144 62.6475 82.7458 63.7813 81.2796 64.0747Z" fill="white"/>
<path d="M13.7478 46.8393C13.7478 44.8231 14.5862 42.9956 15.9426 41.6461C15.0683 40.4364 14.5543 38.9712 14.5543 37.3912C14.5543 34.7004 16.0444 32.3458 18.2772 31.0184L18.2652 30.8068C18.2652 27.7296 20.2095 25.0886 22.9882 23.9259C24.136 21.1269 26.9876 19.1405 30.3332 19.1405C30.4879 19.1405 30.6387 19.1543 30.7924 19.1625C31.3663 16.2883 34.0142 14.1144 37.1992 14.1144C40.7744 14.1144 43.6748 16.8542 43.7217 20.2497H43.7257V63.9696H43.7158C43.615 68.6348 39.3271 72.3916 34.0442 72.3916C31.0099 72.3916 28.3051 71.151 26.5295 69.2137C25.9925 69.3244 25.4366 69.3853 24.8636 69.3853C20.5069 69.3853 16.9747 66.0207 16.9747 61.8696C16.9747 61.4025 17.0256 60.9484 17.1114 60.5052C15.0793 59.1448 13.7478 56.9001 13.7478 54.3549C13.7478 52.9846 14.1391 51.703 14.8118 50.5971C14.1391 49.4902 13.7478 48.2097 13.7478 46.8393Z" fill="#1DB1F9"/>
<path d="M38.4119 63.5455C38.7712 62.4925 38.6714 61.3317 38.1165 60.0811C37.835 60.2807 37.5206 60.4204 37.1623 60.4613C37.0725 60.4703 36.9846 60.4763 36.8948 60.4763C34.9375 60.4763 32.6259 58.2346 32.3574 57.9691L33.1289 57.1886C33.7917 57.8443 35.7949 59.4972 37.0405 59.3704C37.2541 59.3464 37.4238 59.2447 37.5765 59.1049C37.5126 59.0001 37.4747 58.9003 37.4048 58.7945C33.2467 52.4696 33.4224 51.5333 36.4077 48.563L36.7451 48.2286L37.5206 49.0041L37.1822 49.3405C34.674 51.8358 34.3526 52.1552 38.3221 58.1897C39.5318 60.0322 39.916 61.7639 39.5567 63.3638C39.7903 63.3039 40.0278 63.272 40.2744 63.2989C41.4361 63.3698 42.1687 64.33 42.1987 64.3729L41.3204 65.0287C41.3164 65.0237 40.8572 64.4328 40.2075 64.3939C39.7833 64.3709 39.3381 64.5955 38.887 65.0536C37.4198 67.3652 34.5243 68.3813 34.3856 68.4292L34.0292 67.3922C34.0632 67.3792 37.5166 66.1665 38.4119 63.5455Z" fill="white"/>
<path d="M27.6985 39.258C28.3183 41.9419 27.475 43.5957 26.3341 44.7346C27.3003 45.6279 28.3483 46.053 29.0529 45.7536C29.7626 45.4532 30.099 44.4381 30.0001 42.8901C29.9193 41.5726 30.2766 40.4627 31.0681 39.5923C32.6431 37.8546 35.3689 37.7409 35.4847 37.7359L35.5236 38.8338C35.4997 38.8338 33.1362 38.9386 31.8756 40.3339C31.2947 40.9747 31.0332 41.8121 31.0981 42.8222C31.2697 45.584 30.1588 46.4782 29.4821 46.7647C29.1927 46.8875 28.8793 46.9453 28.5519 46.9453C27.5798 46.9453 26.4838 46.3994 25.4967 45.4542C25.0885 45.7626 24.6773 46.0361 24.306 46.2746C23.9018 46.5341 23.5225 46.7757 23.22 47.0292C22.4395 47.678 21.5353 48.6661 21.668 49.6771C21.7908 50.6203 22.8228 51.5676 24.6533 52.4189C24.9058 52.5357 25.1085 52.6694 25.325 52.7982C26.1125 51.2951 27.0508 50.4058 28.1387 50.2241C29.7007 49.9816 30.8705 51.2083 30.9194 51.2592L30.1179 52.0097C30.1099 52.0007 29.3045 51.1563 28.3183 51.3061C27.5638 51.4318 26.8422 52.1904 26.2124 53.455C26.7912 53.9979 27.1526 54.6088 27.2294 55.3014C27.4779 57.5432 24.8679 59.5743 24.7561 59.6602L24.0874 58.7898C24.7092 58.3097 26.2912 56.7716 26.1385 55.4212C26.0527 54.6497 25.3969 53.972 24.1912 53.413C21.9724 52.382 20.7577 51.1733 20.5791 49.8189C20.4234 48.6102 21.0741 47.3885 22.5174 46.1838C22.8518 45.9053 23.267 45.6378 23.7131 45.3504C25.4548 44.2315 27.429 42.9649 26.6316 39.5065L27.6985 39.258Z" fill="white"/>
<path d="M21.3609 38.9109C21.8839 38.0555 21.6264 36.5664 20.6173 34.6031C19.747 32.9083 19.6162 31.4232 20.232 30.1905C21.2671 28.1144 24.0248 27.6144 24.1406 27.5954L24.3292 28.6754C24.3053 28.6804 21.9957 29.1065 21.2112 30.6835C20.8738 31.3633 20.8648 32.1847 21.1802 33.1309C22.1244 32.3663 23.0467 32.0529 23.939 32.2246C25.7156 32.572 26.545 34.7079 26.579 34.7987L25.5549 35.188C25.5489 35.171 24.8952 33.5301 23.7294 33.3026C23.1026 33.1738 22.4019 33.4932 21.6334 34.1919C22.8002 36.5005 23.0287 38.2841 22.2971 39.4828C21.4966 40.7943 19.8717 40.936 19.209 40.936V39.8391C19.6851 39.8391 20.8489 39.7493 21.3609 38.9109Z" fill="white"/>
<path d="M18.2172 45.981L18.9268 46.8164C18.9099 46.8294 17.3349 48.1968 17.3299 49.9455C17.3279 50.9635 17.8658 51.9466 18.9288 52.8639L18.2132 53.6953C16.8927 52.5555 16.227 51.2909 16.233 49.9325C16.2439 47.6758 18.1363 46.0469 18.2172 45.981Z" fill="white"/>
<path d="M40.6628 28.1187L40.0021 27.2403C40.4802 26.882 41.2777 26.2841 41.2048 25.6643C41.1569 25.2531 40.6818 24.3917 38.0478 23.2449C36.1255 22.4075 35.1264 21.4064 35.0775 20.2684C35.0026 18.5904 37.0088 17.4459 37.2354 17.3216L37.7624 18.2861C37.3382 18.5175 36.1365 19.3683 36.1724 20.2214C36.2023 20.8942 37.0018 21.5928 38.485 22.2378C40.9134 23.2938 42.158 24.3748 42.2957 25.5385C42.4415 26.7832 41.2837 27.6515 40.6628 28.1187Z" fill="white"/>
<path d="M30.2727 28.7872C30.4683 29.2992 31.4085 30.1396 35.4828 29.963C38.534 29.8462 40.3006 30.3023 41.0073 31.4142C41.8756 32.7866 40.8815 34.691 39.9183 36.5325C38.5988 39.0587 37.9092 40.6536 39.4323 41.4591L38.9182 42.4272C36.3212 41.0538 37.7754 38.2662 38.9462 36.0244C39.7646 34.4574 40.611 32.8395 40.08 32.0041C39.7776 31.525 38.7995 30.998 35.9559 31.0549C36.3342 32.4193 36.2553 33.3595 35.6565 33.8635C35.345 34.125 34.9538 34.2238 34.5436 34.2238C33.5235 34.2238 32.3927 33.622 32.1072 33.4593L32.6472 32.5031C33.3628 32.9103 34.5885 33.3305 34.9488 33.0241C35.1504 32.8554 35.1903 32.2326 34.824 31.0729C31.5832 31.1228 29.7507 30.4989 29.2457 29.1774C29.0061 28.5436 29.1428 27.85 29.4423 27.1693C28.8933 27.0675 28.4102 26.8709 28.0699 26.4786C27.0798 25.3448 27.474 23.4384 27.491 23.3585L28.563 23.5861C28.561 23.6011 28.2735 25.0453 28.8973 25.759C29.1399 26.0344 29.5341 26.1462 30.0212 26.1482C30.9095 24.8577 32.1621 23.7887 32.3967 23.5961L33.0913 24.4455C31.7728 25.5234 29.8425 27.6553 30.2727 28.7872Z" fill="white"/>
<path d="M38.7356 52.2731L38.6438 51.1802C38.7187 51.1692 40.5362 51.0295 41.3267 52.2532C41.9315 53.1874 41.7279 54.5767 40.7228 56.3833L39.7627 55.8473C40.5322 54.467 40.7608 53.404 40.4074 52.854C40.0471 52.2961 39.081 52.2362 38.7356 52.2731Z" fill="white"/>
<path d="M36.3849 25.9644C37.3411 26.5882 37.2502 28.0195 37.2373 28.1802L36.1443 28.0924C36.1683 27.7879 36.1104 27.0943 35.785 26.8837C35.5215 26.717 34.9706 26.8278 34.2829 27.205L33.7549 26.2409C34.8588 25.643 35.7391 25.5512 36.3849 25.9644Z" fill="white"/>
<path d="M36.7624 46.1441C34.6814 46.3966 33.4208 46.0542 32.9128 45.1021C32.242 43.8464 33.3509 42.0998 33.7921 41.5857L34.6235 42.3014C34.2672 42.7146 33.5475 43.9622 33.8819 44.586C34.1364 45.0641 35.1315 45.2368 36.6317 45.0551C38.7037 44.8066 40.144 45.1539 40.9025 46.0862C41.8268 47.219 41.3357 48.7281 41.3138 48.791L40.2727 48.4437C40.2767 48.4327 40.5871 47.4386 40.0522 46.7778C39.5541 46.163 38.4143 45.9445 36.7624 46.1441Z" fill="white"/>
<path d="M25.0242 64.0747C25.5472 64.1796 26.0543 64.1656 26.5274 64.0888C26.0882 63.429 25.9205 62.7323 26.0443 62.0087C26.4146 59.8448 29.2881 58.3287 29.4109 58.2668L29.9169 59.24C29.2182 59.6043 27.3558 60.8449 27.1262 62.1953C27.0354 62.7303 27.237 63.2443 27.6772 63.7634C28.5775 63.403 29.1863 62.9249 29.1963 62.915L29.4688 62.6924L29.7842 62.8471C32.501 64.1626 33.7117 62.5766 33.7636 62.5107L34.6549 63.1495C34.6379 63.1745 32.9721 65.4342 29.6105 63.974C29.0186 64.3852 27.5674 65.2495 25.8167 65.2495C25.4933 65.2495 25.161 65.2216 24.8206 65.1527C23.0121 64.7954 21.486 63.4729 20.2812 61.2202L21.2504 60.7022C22.2894 62.6475 23.558 63.7813 25.0242 64.0747Z" fill="white"/>
<path d="M80.1464 12.507C79.8929 12.9253 79.3041 13.032 78.831 12.7455C78.3579 12.4589 78.1782 11.8878 78.4317 11.4694L81.8073 5.89147C82.0608 5.47329 82.6497 5.36667 83.1228 5.65313C83.5969 5.93968 83.7755 6.51091 83.522 6.92911L80.1464 12.507Z" fill="#FFCC33"/>
<path d="M39.6433 7.40552C39.6433 7.89429 39.1942 8.29034 38.6413 8.29004C38.0873 8.28984 37.6392 7.89328 37.6392 7.40443L37.6421 0.884426C37.6431 0.395636 38.0923 -0.000390053 38.6452 -9.05991e-05C39.1982 0.000208855 39.6473 0.396653 39.6473 0.885522L39.6433 7.40552Z" fill="#FFCC33"/>
<path d="M39.6433 89.1157C39.6433 89.6048 39.1942 90 38.6413 90C38.0873 90 37.6392 89.6037 37.6392 89.1147L37.6421 82.5951C37.6431 82.106 38.0923 81.7097 38.6452 81.7097C39.1982 81.7107 39.6473 82.107 39.6473 82.5951L39.6433 89.1157Z" fill="#FFCC33"/>
<path d="M67.1492 7.40552C67.1492 7.89429 66.7001 8.29034 66.1471 8.29004C65.5932 8.28984 65.145 7.89328 65.145 7.40443L65.148 0.884426C65.149 0.395636 65.5972 -0.000390053 66.1511 -9.05991e-05C66.704 0.000208855 67.1532 0.396653 67.1522 0.885522L67.1492 7.40552Z" fill="#FFCC33"/>
<path d="M67.1492 89.1157C67.1492 89.6048 66.7001 90 66.1471 90C65.5932 90 65.145 89.6037 65.145 89.1147L65.148 82.5951C65.149 82.106 65.5972 81.7097 66.1511 81.7097C66.704 81.7107 67.1532 82.107 67.1522 82.5951L67.1492 89.1157Z" fill="#FFCC33"/>
<path d="M92.1303 24.0234C91.738 24.3148 91.1522 24.1911 90.8228 23.7469C90.4924 23.3018 90.5433 22.7058 90.9356 22.4144L96.1716 18.5287C96.5639 18.2374 97.1498 18.3615 97.4791 18.8058C97.8095 19.2503 97.7586 19.8466 97.3653 20.1381L92.1303 24.0234Z" fill="#FFCC33"/>
<path d="M98.87 38.6574C98.3979 38.7822 97.8998 38.4488 97.7591 37.9138C97.6184 37.3789 97.8869 36.8439 98.359 36.7191L104.664 35.0563C105.136 34.9315 105.634 35.2639 105.775 35.7989C105.916 36.3348 105.647 36.8688 105.175 36.9936L98.87 38.6574Z" fill="#FFCC33"/>
<path d="M80.1464 76.48C79.8929 76.0618 79.3041 75.955 78.831 76.2414C78.3579 76.5279 78.1782 77.0998 78.4317 77.518L81.8073 83.0954C82.0608 83.5136 82.6497 83.6204 83.1228 83.3339C83.5969 83.0475 83.7755 82.4766 83.522 82.0574L80.1464 76.48Z" fill="#FFCC33"/>
<path d="M92.1303 64.9626C91.738 64.6722 91.1522 64.796 90.8228 65.2401C90.4924 65.6843 90.5433 66.2811 90.9356 66.5726L96.1716 70.4582C96.5639 70.7486 97.1498 70.6249 97.4791 70.1807C97.8095 69.7366 97.7586 69.1397 97.3653 68.8482L92.1303 64.9626Z" fill="#FFCC33"/>
<path d="M98.87 50.33C98.3979 50.2052 97.8998 50.5376 97.7591 51.0726C97.6184 51.6076 97.8869 52.1426 98.359 52.2673L104.664 53.9312C105.136 54.0549 105.634 53.7226 105.775 53.1876C105.916 52.6526 105.647 52.1176 105.175 51.9929L98.87 50.33Z" fill="#FFCC33"/>
<path d="M25.666 12.507C25.9185 12.9253 26.5074 13.032 26.9815 12.7455C27.4546 12.4589 27.6332 11.8878 27.3797 11.4694L24.0042 5.89147C23.7516 5.47329 23.1628 5.36667 22.6887 5.65313C22.2156 5.93968 22.0369 6.51091 22.2894 6.92911L25.666 12.507Z" fill="#FFCC33"/>
<path d="M13.6823 24.0234C14.0755 24.3148 14.6604 24.1911 14.9908 23.7469C15.3201 23.3018 15.2692 22.7058 14.877 22.4144L9.64096 18.5287C9.2487 18.2374 8.66382 18.3615 8.33345 18.8058C8.00407 19.2503 8.05497 19.8466 8.44723 20.1381L13.6823 24.0234Z" fill="#FFCC33"/>
<path d="M6.94193 38.6574C7.41503 38.7822 7.91208 38.4488 8.05381 37.9138C8.19455 37.3789 7.92606 36.8439 7.45296 36.7191L1.14896 35.0563C0.676257 34.9315 0.178809 35.2639 0.0375778 35.7989C-0.103554 36.3348 0.16513 36.8688 0.637731 36.9936L6.94193 38.6574Z" fill="#FFCC33"/>
<path d="M25.666 76.48C25.9185 76.0618 26.5074 75.955 26.9815 76.2414C27.4546 76.5279 27.6332 77.0998 27.3797 77.518L24.0042 83.0954C23.7516 83.5136 23.1628 83.6204 22.6887 83.3339C22.2156 83.0475 22.0369 82.4766 22.2894 82.0574L25.666 76.48Z" fill="#FFCC33"/>
<path d="M13.6823 64.9626C14.0755 64.6722 14.6604 64.796 14.9908 65.2401C15.3201 65.6843 15.2692 66.2811 14.877 66.5726L9.64096 70.4582C9.2487 70.7486 8.66382 70.6249 8.33345 70.1807C8.00407 69.7366 8.05497 69.1397 8.44723 68.8482L13.6823 64.9626Z" fill="#FFCC33"/>
<path d="M6.94193 50.33C7.41503 50.2052 7.91208 50.5376 8.05381 51.0726C8.19455 51.6076 7.92606 52.1426 7.45296 52.2673L1.14896 53.9312C0.676257 54.0549 0.178809 53.7226 0.0375778 53.1876C-0.103554 52.6526 0.16513 52.1176 0.637731 51.9929L6.94193 50.33Z" fill="#FFCC33"/>
<path d="M49.1104 26.1762H57.0792L56.3387 27.9219C57.5294 27.0366 59.4487 26.2012 60.9968 25.7111C59.4487 25.222 57.5294 24.3856 56.3387 23.5003L57.0792 25.246H49.1104L49.851 23.5003C48.6603 24.3856 46.7409 25.222 45.1929 25.7111C46.7409 26.2012 48.6603 27.0366 49.851 27.9219L49.1104 26.1762Z" fill="#FF2A54"/>
<path d="M57.0792 34.5648H49.1104L49.851 32.8192C48.6603 33.7045 46.7409 34.5399 45.1929 35.03C46.7409 35.519 48.6603 36.3544 49.851 37.2397L49.1104 35.4941H57.0792L56.3387 37.2397C57.5294 36.3544 59.4487 35.519 60.9968 35.03C59.4487 34.5399 57.5294 33.7045 56.3387 32.8192L57.0792 34.5648Z" fill="#FF2A54"/>
<path d="M57.0792 43.8842H49.1104L49.851 42.1385C48.6603 43.0238 46.7409 43.8592 45.1929 44.3483C46.7409 44.8384 48.6603 45.6738 49.851 46.5591L49.1104 44.8134H57.0792L56.3387 46.5591C57.5294 45.6738 59.4487 44.8384 60.9968 44.3483C59.4487 43.8592 57.5294 43.0238 56.3387 42.1385L57.0792 43.8842Z" fill="#FF2A54"/>
<path d="M57.0792 53.2025H49.1104L49.851 51.4578C48.6603 52.3421 46.7409 53.1786 45.1929 53.6676C46.7409 54.1577 48.6603 54.9931 49.851 55.8784L49.1104 54.1327H57.0792L56.3387 55.8784C57.5294 54.9931 59.4487 54.1577 60.9968 53.6676C59.4487 53.1786 57.5294 52.3421 56.3387 51.4578L57.0792 53.2025Z" fill="#FF2A54"/>
<path d="M57.0792 62.5219H49.1104L49.851 60.7762C48.6603 61.6615 46.7409 62.4969 45.1929 62.987C46.7409 63.4761 48.6603 64.3125 49.851 65.1968L49.1104 63.4511H57.0792L56.3387 65.1968C57.5294 64.3125 59.4487 63.4761 60.9968 62.987C59.4487 62.4969 57.5294 61.6615 56.3387 60.7762L57.0792 62.5219Z" fill="#FF2A54"/>
<path d="M53.0948 26.1762V25.246H49.1104L49.851 23.5003C48.6603 24.3856 46.7409 25.222 45.1929 25.7111C46.7409 26.2012 48.6603 27.0366 49.851 27.9219L49.1104 26.1762H53.0948Z" fill="#1DB1F9"/>
<path d="M53.0948 35.4941V34.5648H49.1104L49.851 32.8192C48.6603 33.7045 46.7409 34.5399 45.1929 35.03C46.7409 35.519 48.6603 36.3544 49.851 37.2397L49.1104 35.4941H53.0948Z" fill="#1DB1F9"/>
<path d="M53.0948 44.8134V43.8842H49.1104L49.851 42.1385C48.6603 43.0238 46.7409 43.8592 45.1929 44.3483C46.7409 44.8384 48.6603 45.6738 49.851 46.5591L49.1104 44.8134H53.0948Z" fill="#1DB1F9"/>
<path d="M53.0948 54.1327V53.2025H49.1104L49.851 51.4578C48.6603 52.3421 46.7409 53.1786 45.1929 53.6676C46.7409 54.1577 48.6603 54.9931 49.851 55.8784L49.1104 54.1327H53.0948Z" fill="#1DB1F9"/>
<path d="M53.0948 63.4511V62.5219H49.1104C49.1104 62.5219 51.0417 59.8909 49.851 60.7762C48.6603 61.6615 46.7409 62.4969 45.1929 62.987C46.7409 63.4761 48.6603 64.3125 49.851 65.1968L49.1104 63.4511H53.0948Z" fill="#1DB1F9"/>
</svg>
