<svg width="567" height="464" viewBox="0 0 567 464" fill="none" xmlns="http://www.w3.org/2000/svg">
<path d="M511.617 428.445H55.3828C44.5151 428.445 35.7012 420.666 35.7012 411.073V121.124C35.7012 111.528 44.5151 103.752 55.3828 103.752H511.617C522.485 103.752 531.299 111.528 531.299 121.124V411.073C531.299 420.666 522.485 428.445 511.617 428.445Z" fill="#AAAAAA"/>
<path d="M536.943 463.859H30.0601C13.4577 463.859 0 449.99 0 432.883V432.571H567V432.883C567 449.99 553.542 463.859 536.943 463.859Z" fill="#462A69"/>
<path d="M499.627 399.959H67.3726V132.239H499.627V399.959Z" fill="#31DAE6"/>
<path d="M333.329 171.976C321.165 176.909 306.685 168.513 301.084 156.642C295.483 144.77 296.827 130.792 300.062 118.07C303.3 105.348 308.312 93.0027 309.801 79.9626C312.264 58.3985 304.31 35.8807 288.851 20.6465C273.39 5.40919 250.76 -2.21416 229.233 0.562714C224.065 1.22974 218.206 3.09349 216.361 7.96475L216.314 8.15804L216.268 7.96475C214.426 3.09349 208.563 1.22974 203.396 0.562714C181.869 -2.21416 159.239 5.40919 143.777 20.6465C128.319 35.8807 120.365 58.3985 122.827 79.9626C124.317 93.0027 129.329 105.348 132.567 118.07C135.802 130.792 137.145 144.77 131.544 156.642C125.944 168.513 111.467 176.909 99.2996 171.976C95.5752 188.213 103.909 205.355 116.345 216.444C128.777 227.53 144.747 233.685 160.467 239.192C174.782 244.207 193.519 247.691 202.729 235.639C206.537 230.656 207.557 224.145 208.451 217.937C211.072 199.76 213.693 181.587 216.314 163.414C218.935 181.587 221.557 199.76 224.178 217.937C225.072 224.145 226.091 230.656 229.9 235.639C239.109 247.691 257.847 244.207 272.162 239.192C287.882 233.685 303.852 227.53 316.284 216.444C328.719 205.355 337.057 188.213 333.329 171.976Z" fill="#462A69"/>
<path d="M251.28 193.87C251.28 193.87 250.794 193.82 249.843 193.755C243.597 193.34 238.714 188.213 238.714 181.952V151.035H193.862V181.964C193.862 188.194 189.022 193.384 182.801 193.764C181.825 193.823 181.296 193.87 181.296 193.87L163.331 256.751H272.218L251.28 193.87Z" fill="#FFB3C4"/>
<path d="M194.039 177.72C200.98 181.139 208.547 183.115 216.529 183.021C224.511 182.931 232.031 180.777 238.888 177.196L238.47 141.613L193.622 142.137L194.039 177.72Z" fill="#E993AC"/>
<path d="M180.728 105.809C180.728 116.53 173.164 125.223 163.833 125.223C154.502 125.223 147.053 107.885 147.053 97.1635C147.053 86.4422 154.39 84.7997 163.833 86.3955C173.049 87.9538 180.728 95.0878 180.728 105.809Z" fill="#FFB3C4"/>
<path d="M251.854 105.809C251.854 116.53 259.414 125.223 268.746 125.223C278.08 125.223 285.526 107.885 285.526 97.1635C285.526 86.4422 278.189 84.7997 268.746 86.3955C259.53 87.9538 251.854 95.0878 251.854 105.809Z" fill="#FFB3C4"/>
<path d="M269.254 51.8289C262.796 31.7794 216.289 31.0906 216.289 31.0906C216.289 31.0906 169.783 31.7794 163.325 51.8289C156.864 71.8751 157.512 113.358 167.199 133.404C176.889 153.453 194.975 170.043 216.289 170.043C237.604 170.043 255.69 153.453 265.38 133.404C275.066 113.358 275.714 71.8751 269.254 51.8289Z" fill="#FFB3C4"/>
<path d="M176.293 85.0743C175.851 85.121 175.389 84.9901 175.022 84.6784C174.311 84.0707 174.224 83.0048 174.832 82.2911C174.919 82.1914 183.745 72.0685 197.072 78.0867C197.923 78.4732 198.303 79.4768 197.917 80.3307C197.536 81.1847 196.533 81.5649 195.679 81.1753C184.637 76.1887 177.478 84.4041 177.412 84.4884C177.116 84.8342 176.711 85.0338 176.293 85.0743Z" fill="#462A69"/>
<path d="M256.45 85.1112C256.893 85.158 257.354 85.0302 257.719 84.7185C258.433 84.1108 258.517 83.0418 257.912 82.3281C257.825 82.2283 248.998 72.1055 235.672 78.1268C234.821 78.5102 234.441 79.5137 234.824 80.3677C235.207 81.2216 236.211 81.6019 237.065 81.2123C248.107 76.2257 255.266 84.4412 255.332 84.5252C255.628 84.8713 256.033 85.0707 256.45 85.1112Z" fill="#462A69"/>
<path d="M192.755 96.506C192.755 101.063 189.841 104.756 186.248 104.756C182.654 104.756 179.74 101.063 179.74 96.506C179.74 91.9495 182.654 88.2531 186.248 88.2531C189.841 88.2531 192.755 91.9495 192.755 96.506Z" fill="#381728"/>
<path d="M253.041 96.506C253.041 101.063 250.127 104.756 246.533 104.756C242.94 104.756 240.026 101.063 240.026 96.506C240.026 91.9495 242.94 88.2531 246.533 88.2531C250.127 88.2531 253.041 91.9495 253.041 96.506Z" fill="#381728"/>
<path d="M196.327 133.233C198.409 138.385 204.271 149.523 216.286 149.523C228.313 149.523 234.169 138.385 236.251 133.233H196.327Z" fill="white"/>
<path d="M216.286 122.24C212.739 122.24 209.85 120.691 208.853 118.597C208.626 119.077 208.392 119.557 208.392 120.086C208.392 122.923 211.926 125.223 216.286 125.223C220.649 125.223 224.184 122.923 224.184 120.086C224.184 119.557 223.95 119.077 223.719 118.597C222.725 120.691 219.836 122.24 216.286 122.24Z" fill="#E4776D"/>
<path d="M188.121 117.649C188.121 122.611 184.06 126.635 179.052 126.635C174.043 126.635 169.985 122.611 169.985 117.649C169.985 112.685 174.043 108.661 179.052 108.661C184.06 108.661 188.121 112.685 188.121 117.649Z" fill="#E993AC"/>
<path d="M262.59 117.649C262.59 122.611 258.532 126.635 253.524 126.635C248.515 126.635 244.454 122.611 244.454 117.649C244.454 112.685 248.515 108.661 253.524 108.661C258.532 108.661 262.59 112.685 262.59 117.649Z" fill="#E993AC"/>
<path d="M274.58 66.0094C274.281 61.5651 274.602 57.1269 273.651 52.6607C272.392 46.7391 269.774 40.9765 265.429 36.7566C262.568 33.9796 259.072 31.96 255.575 30.0527C250.457 27.2663 245.212 24.6296 239.62 22.9902C228.606 19.7583 216.841 20.5343 205.44 21.8714C197.184 22.8438 188.872 24.1153 181.165 27.232C173.46 30.3486 166.326 35.4881 162.197 42.7031C156.671 52.3585 156.038 65.4641 156.288 76.3567C156.487 85.1083 156.197 94.801 158.407 103.334C160.084 102.602 161.76 101.866 163.44 101.134C163.989 100.894 164.572 100.626 164.868 100.155C165.129 99.7409 165.12 99.2422 165.108 98.7685C164.992 94.2743 165.214 89.7739 165.768 85.3045C166.18 82.0041 166.784 78.6817 168.221 75.6055C169.48 72.9097 171.341 70.4818 173.342 68.1412C176.929 66.3273 180.978 66.2182 184.833 66.7169C189.701 67.3432 194.551 68.7863 199.428 68.3188C205.104 67.7766 210.539 64.6381 215.233 60.2093C215.523 59.9351 215.816 59.6078 216.105 59.3211C216.398 59.6078 216.691 59.9351 216.978 60.2093C221.672 64.6381 227.11 67.7766 232.786 68.3188C237.66 68.7863 242.513 67.3432 247.378 66.7169C251.548 66.1777 255.949 66.3335 259.739 68.6087C261.59 70.8059 263.304 73.0873 264.479 75.6055C265.916 78.6817 266.52 82.0041 266.932 85.3045C267.486 89.7739 267.708 94.2743 267.592 98.7685C267.58 99.2422 267.571 99.7409 267.832 100.155C268.128 100.626 268.711 100.894 269.26 101.134C270.94 101.866 272.616 102.602 274.296 103.334L274.387 102.973C276.226 95.5179 275.958 87.2276 276.032 79.6073C276.07 75.618 275.325 72.2676 274.814 68.4123C274.711 67.6113 274.636 66.8104 274.58 66.0094Z" fill="#462A69"/>
<path d="M417.671 264.154C417.671 264.154 426.143 243.325 444.696 249.901C463.252 256.481 474.949 261.595 492.699 260.863C499.025 260.604 515.544 256.113 517.76 259.769C519.997 263.453 507.867 275.296 497.14 277.699C488.644 279.6 474.7 280.27 453.114 278.4C434.28 276.77 428.159 288.264 428.159 288.264L417.671 264.154Z" fill="#FFB3C4"/>
<path d="M416.787 251.877C395.275 271.225 336.695 311.545 333.379 309.118C331.471 307.721 323.82 214.465 301.77 205.847C279.426 197.114 273.383 240.149 272.623 260.077C271.563 287.831 293.286 384.855 326.014 371.566C343.72 364.373 440.149 289.402 444.771 285.054C442.072 282.931 424.426 259.902 416.787 251.877Z" fill="#FF8CA3"/>
<path d="M301.707 205.848C288.917 202.638 260.714 194.466 251.28 193.87C248.216 200.992 233.746 206.393 216.286 206.393C198.83 206.393 184.359 200.992 181.295 193.87C171.861 194.466 144.307 202.638 131.516 205.848C131.516 205.848 116.351 225.024 122.684 244.585C133.813 278.961 149.527 330.86 150.73 353.362C151.709 371.647 151.133 387.798 150.332 399.959H282.244C281.443 387.798 280.866 371.647 281.845 353.362C283.051 330.86 298.762 278.961 309.895 244.585C316.225 225.024 301.707 205.848 301.707 205.848Z" fill="#FF8CA3"/>
<path d="M281.845 353.362C282.609 339.085 289.216 312.979 296.786 287.018C289.253 293.288 280.816 298.524 270.251 301.582C246.745 308.379 225.318 295.941 202.545 299.874C166.111 306.167 156.686 260.077 153.454 255.412C145.526 243.974 138.252 236.924 124.788 232.324C123.622 231.925 122.494 231.476 121.341 231.068C120.914 235.384 121.188 239.959 122.684 244.585C133.813 278.961 149.524 330.86 150.731 353.362C151.709 371.647 151.133 387.798 150.332 399.959H282.244C281.443 387.798 280.866 371.647 281.845 353.362Z" fill="#F26B80"/>
<path d="M439.105 269.998C439.105 269.998 444.952 258.79 459.076 264.88C473.204 270.973 489.61 266.03 484.072 258.114C482.769 256.253 471.742 254.592 461.514 253.373C451.285 252.155 446.778 241.013 433.09 249.234C429.724 251.257 431.067 266.102 439.105 269.998Z" fill="#FFB3C4"/>
<path d="M408.175 202.965L402.668 184.626L397.005 202.965H408.175ZM412.539 217.812H392.411L389.659 226.67H371.443L394.098 163.963H412.311L434.118 226.67H415.219L412.539 217.812Z" fill="white"/>
<path d="M458.603 192.767V205.29H437.173V192.767H458.603Z" fill="#462A69"/>
<path d="M512.618 163.963V176.931L487.594 210.747H513.16V226.67H463.951V213.698L488.975 179.886H464.87V163.963H512.618Z" fill="#FFCC33"/>
<path d="M256.061 293.815C256.061 293.815 271.22 280.896 279.193 278.434C287.389 275.907 295.63 276.221 303.574 276.346C308.318 276.421 315.701 276.86 319.438 278.643C324.166 280.899 323.303 285.434 318.188 286.257C312.706 287.136 300.925 287.491 297.388 287.625C292.142 287.828 291.391 288.85 300.47 290.823C312.251 293.378 309.979 305.879 297.092 312.926C291.821 315.806 286.613 316.915 280.224 317.981C258.199 321.65 252.081 321.681 249.076 322.348C246.075 323.015 241.067 304.327 241.067 304.327L256.061 293.815Z" fill="#FFB3C4"/>
<path d="M131.516 205.847C131.516 205.847 114.232 222.503 101.933 256.437C94.6091 276.636 82.0895 324.505 82.0552 339.695C82.0272 352.763 83.9626 365.249 94.6247 372.806C118.981 390.076 224.203 350.619 254.16 331.62C254.16 331.62 244.455 310.046 240.026 295.504C216.423 305.552 137.619 338.473 134.571 331.62C134.047 330.448 149.415 300.628 152.108 266.099C154.019 241.561 148.272 209.865 131.516 205.847Z" fill="#FF8CA3"/>
</svg>
