<?xml version="1.0" standalone="no"?>
<!DOCTYPE svg PUBLIC "-//W3C//DTD SVG 20010904//EN"
 "http://www.w3.org/TR/2001/REC-SVG-20010904/DTD/svg10.dtd">
<svg version="1.0" xmlns="http://www.w3.org/2000/svg"
 width="1280.000000pt" height="1079.000000pt" viewBox="0 0 1280.000000 1079.000000"
 preserveAspectRatio="xMidYMid meet">
<metadata>
Created by potrace 1.15, written by Peter Selinger 2001-2017
</metadata>
<g transform="translate(0.000000,1079.000000) scale(0.100000,-0.100000)"
fill="#000000" stroke="none">
<path d="M7100 10730 c-36 -31 -528 -453 -1095 -936 -566 -483 -1351 -1152
-1742 -1486 l-713 -608 -1533 0 c-996 0 -1553 -4 -1588 -10 -193 -37 -379
-216 -419 -406 -7 -33 -10 -644 -8 -1899 3 -1773 4 -1852 22 -1899 46 -125
150 -243 265 -305 122 -65 23 -61 1698 -61 l1523 0 1253 -1067 c688 -587 1512
-1289 1829 -1560 318 -270 580 -488 583 -483 12 19 34 178 44 315 79 1045 89
5271 21 8665 -19 944 -49 1730 -68 1779 -6 16 -15 12 -72 -39z"/>
<path d="M10847 10100 c-98 -109 -177 -200 -177 -202 0 -2 55 -60 123 -129
270 -273 505 -616 726 -1059 652 -1311 890 -2979 640 -4485 -158 -954 -481
-1811 -992 -2631 -101 -163 -301 -452 -374 -540 l-33 -41 217 -163 217 -163
22 26 c42 49 242 332 336 477 229 351 419 700 583 1069 587 1325 789 2790 589
4281 -188 1410 -728 2714 -1455 3517 -61 68 -141 149 -178 182 l-68 60 -176
-199z"/>
<path d="M9730 8794 c-91 -102 -169 -191 -174 -197 -5 -9 18 -38 74 -92 720
-698 1123 -2299 965 -3835 -106 -1032 -455 -1890 -969 -2389 -42 -41 -75 -77
-74 -82 4 -11 349 -389 355 -389 14 0 118 99 205 195 679 749 1058 1944 1058
3335 0 1358 -368 2615 -984 3360 -85 103 -262 280 -279 279 -7 0 -86 -84 -177
-185z"/>
<path d="M8189 7733 l-196 -176 91 -107 c616 -722 838 -1675 627 -2691 -106
-507 -320 -1004 -627 -1456 l-83 -122 197 -139 c108 -76 208 -146 221 -155 29
-19 22 -26 138 148 374 562 624 1192 722 1815 39 251 46 343 46 635 0 295 -8
399 -46 633 -97 590 -347 1149 -716 1605 -83 103 -161 187 -171 187 -4 -1 -95
-80 -203 -177z"/>
</g>
</svg>
