<svg width="56" height="79" viewBox="0 0 56 79" fill="none" xmlns="http://www.w3.org/2000/svg">
<path d="M56 64.8657V0.00012207H9.03641C4.04523 0.00012207 0 4.04797 0 9.04118V64.8378C0 69.8311 4.04523 73.8789 9.03641 73.8789H56V73.0968C53.7223 71.026 53.7223 66.9364 56 64.8657Z" fill="#51D7FF"/>
<path d="M56 8.71094V6.8925H0.624133C0.226285 7.34525 0 7.83697 0 8.3528V8.71094H56Z" fill="#00001B"/>
<path d="M56 49.4736V47.6552H0.624133C0.226285 48.108 0 48.5997 0 49.1146V49.4736H56Z" fill="#00001B"/>
<path d="M56 55.9897V51.671H0V55.9897H56Z" fill="#00001B"/>
<path d="M7.22987 0.180771C3.10487 1.01852 0 4.6665 0 9.04091V64.8375C0 69.212 3.10487 72.859 7.22987 73.6968V0.180771Z" fill="#309BFF"/>
<path d="M55.9999 64.8657V63.4787H9.03629C7.32898 63.4787 5.73481 63.9528 4.37526 64.7775C1.43546 66.5588 1.43546 70.7987 4.37526 72.58C5.73481 73.4039 7.32898 73.8789 9.03629 73.8789H55.9999V73.0968C53.7222 71.026 53.7222 66.9364 55.9999 64.8657Z" fill="#3DC0FF"/>
<path d="M55.9999 64.8653V64.7781H10.4747C8.82021 64.7781 7.27428 65.1575 5.95554 65.8153C3.10662 67.2376 3.10662 70.623 5.95554 72.0453C7.27428 72.704 8.82021 73.0825 10.4747 73.0825H55.9841C53.7213 71.008 53.7269 66.9314 55.9999 64.8653Z" fill="#D7E3DF"/>
<path d="M5.91756 65.8376C5.55495 66.0222 5.23964 66.2412 4.9707 66.4824H54.8519C54.9548 66.2607 55.0624 66.0417 55.195 65.8376H5.91756Z" fill="#C1D1CE"/>
<path d="M4.08797 67.6848C3.99616 67.8945 3.93031 68.1106 3.88672 68.3296H54.3521C54.3753 68.1125 54.3957 67.8972 54.4412 67.6848H4.08797Z" fill="#C1D1CE"/>
<path d="M4.08797 70.1768H54.4133C54.3716 69.9643 54.3614 69.7481 54.3429 69.532H3.88672C3.93031 69.75 3.99616 69.9662 4.08797 70.1768Z" fill="#C1D1CE"/>
<path d="M5.91756 72.0239H55.1393C55.0114 71.8161 54.8973 71.6018 54.799 71.3782H4.9707C5.23964 71.6204 5.55495 71.8384 5.91756 72.0239Z" fill="#C1D1CE"/>
<path d="M31.136 78.0854L26.6772 74.932L22.2192 78.0854V67.2445H31.136V78.0854Z" fill="#FF1A7F"/>
<path d="M51.4131 37.3423H13.0547V14.1658H51.4131V37.3423Z" fill="#00001B"/>
<path d="M25.8472 22.0994C25.8472 20.717 24.8475 19.7466 23.5269 19.7466H21.9615V24.4318H23.577C24.8781 24.4318 25.8472 23.4725 25.8472 22.0994ZM27.2299 22.0901C27.2299 24.1497 25.6756 25.623 23.4963 25.623H20.6084V18.5553H23.5463C25.6858 18.5553 27.2299 20.0203 27.2299 22.0901Z" fill="white"/>
<path d="M29.7681 18.5553V25.623H28.415V18.5553H29.7681Z" fill="white"/>
<path d="M34.7066 19.7176C33.374 19.7176 32.3344 20.7465 32.3344 22.0593C32.3344 23.3823 33.374 24.4121 34.7066 24.4121C35.3818 24.4121 36.0996 24.0985 36.6235 23.5836L37.4202 24.4724C36.6949 25.2091 35.6553 25.6841 34.6352 25.6841C32.5569 25.6841 30.9517 24.119 30.9517 22.0797C30.9517 20.06 32.5764 18.5153 34.6853 18.5153C35.6952 18.5153 36.7237 18.9494 37.4109 19.6462L36.6235 20.6352C36.119 20.0702 35.4031 19.7176 34.7066 19.7176Z" fill="white"/>
<path d="M43.5108 18.5553V19.7577H41.3101V25.623H39.9478V19.7577H37.748V18.5553H43.5108Z" fill="white"/>
<path d="M28.9123 31.9912L28.0693 29.9594L27.2115 31.9912H28.9123ZM29.2434 32.7862H26.8814L26.4529 33.8096H25.4912L27.6131 28.9713H28.5729L30.666 33.8096H29.6718L29.2434 32.7862Z" fill="white"/>
<path d="M32.806 31.3906V32.0122H31.0728V31.3906H32.806Z" fill="white"/>
<path d="M37.562 28.9713V29.6217L34.7159 33.0006H37.5973V33.8096H33.4648V33.1527L36.311 29.7803H33.5483L33.5557 28.9713H37.562Z" fill="white"/>
</svg>
