<svg width="77" height="125" viewBox="0 0 77 125" fill="none" xmlns="http://www.w3.org/2000/svg">
<path d="M72.2369 125H3.98227C1.78235 125 0 123.219 0 121.025V3.97752C0 1.78072 1.78235 7.62939e-06 3.98227 7.62939e-06H72.2369C74.4341 7.62939e-06 76.2165 1.78072 76.2165 3.97752V121.025C76.2165 123.219 74.4341 125 72.2369 125Z" fill="#00001B"/>
<path d="M71.162 109.87H5.0553V6.03966H71.162V109.87Z" fill="#E6EDEB"/>
<path d="M71.162 21.2122V6.03968H5.0553V21.2122H71.162Z" fill="#51D7FF"/>
<path d="M57.7707 47.2141H13.1882V45.5305H57.7707V47.2141Z" fill="#616396"/>
<path d="M54.7465 49.6526H13.1882V47.969H54.7465V49.6526Z" fill="#616396"/>
<path d="M43.5695 52.0918H13.1882V50.4071H43.5695V52.0918Z" fill="#616396"/>
<path d="M57.7707 75.314H13.1882V73.6317H57.7707V75.314Z" fill="#616396"/>
<path d="M54.7465 77.7515H13.1882V76.0692H54.7465V77.7515Z" fill="#616396"/>
<path d="M57.7707 99.6731H13.1882V97.9908H57.7707V99.6731Z" fill="#616396"/>
<path d="M54.7465 102.111H13.1882V100.428H54.7465V102.111Z" fill="#616396"/>
<path d="M43.5695 104.551H13.1882V102.866H43.5695V104.551Z" fill="#616396"/>
<path d="M11.0108 10.9996V16.3562H13.8057V17.4746H9.76892V10.9996H11.0108Z" fill="white"/>
<path d="M19.5398 10.9996V12.0831H16.0298V13.6839H19.1768V14.7639H16.0298V16.3919H19.649V17.4746H14.7906V10.9996H19.5398Z" fill="white"/>
<path d="M24.7018 15.0425L23.5718 12.3225L22.4227 15.0425H24.7018ZM25.144 16.1075H21.9778L21.4019 17.4746H20.1163L22.9577 10.9996H24.246L27.0491 17.4746H25.7171L25.144 16.1075Z" fill="white"/>
<path d="M29.094 14.48H30.557C31.485 14.48 32.0036 14.0803 32.0036 13.2664C32.0036 12.4706 31.485 12.0831 30.557 12.0831H29.094V14.48ZM31.908 17.4746L30.7889 15.5603L30.557 15.569H29.094V17.4746H27.8549V10.9996H30.557C32.2356 10.9996 33.1881 11.805 33.1881 13.2313C33.1881 14.2461 32.7351 14.9771 31.8998 15.3293L33.3273 17.4746H31.908Z" fill="white"/>
<path d="M35.7424 10.9996L39.0832 15.43V10.9996H40.2869V17.4746H39.1106L35.7779 13.0538V17.4746H34.566V10.9996H35.7424Z" fill="white"/>
<path d="M43.1356 10.9996V17.4746H41.8937V10.9996H43.1356Z" fill="white"/>
<path d="M45.9119 10.9996L49.2527 15.43V10.9996H50.4563V17.4746H49.2799L45.9473 13.0538V17.4746H44.7355V10.9996H45.9119Z" fill="white"/>
<path d="M56.4609 14.2551H57.5444V16.6877C56.8785 17.1878 55.8768 17.531 54.9788 17.531C53.0436 17.531 51.5533 16.0958 51.5533 14.2371C51.5533 12.379 53.0709 10.9644 55.0525 10.9644C55.9887 10.9644 56.944 11.3251 57.5881 11.8876L56.8867 12.7961C56.3954 12.3433 55.7103 12.0651 55.0525 12.0651C53.8024 12.0651 52.8225 13.0181 52.8225 14.2371C52.8225 15.4684 53.8106 16.4213 55.0607 16.4213C55.5056 16.4213 56.016 16.2646 56.4609 16.0131V14.2551Z" fill="white"/>
<path d="M59.8758 16.8826C59.8758 17.2703 59.6056 17.5574 59.2371 17.5574C58.8741 17.5574 58.6039 17.2703 58.6039 16.8826C58.6039 16.4952 58.8741 16.2257 59.2371 16.2257C59.6056 16.2257 59.8758 16.4952 59.8758 16.8826ZM59.8758 14.1367C59.8758 14.5241 59.6056 14.8112 59.2371 14.8112C58.8741 14.8112 58.6039 14.5241 58.6039 14.1367C58.6039 13.749 58.8741 13.4798 59.2371 13.4798C59.6056 13.4798 59.8758 13.749 59.8758 14.1367Z" fill="white"/>
<path d="M62.2426 39.5581H56.6418C55.5254 39.5581 54.6219 38.6543 54.6219 37.5399V31.9447C54.6219 30.8304 55.5254 29.9265 56.6418 29.9265H62.2426C63.3589 29.9265 64.2623 30.8304 64.2623 31.9447V37.5399C64.2623 38.6543 63.3589 39.5581 62.2426 39.5581Z" fill="white"/>
<path d="M62.2426 67.9985H56.6418C55.5254 67.9985 54.6219 67.0961 54.6219 65.9809V60.386C54.6219 59.2708 55.5254 58.3683 56.6418 58.3683H62.2426C63.3589 58.3683 64.2623 59.2708 64.2623 60.386V65.9809C64.2623 67.0961 63.3589 67.9985 62.2426 67.9985Z" fill="white"/>
<path d="M55.6632 62.9163L58.1333 66.5017L63.2183 61.2748L61.5479 59.8543L58.308 64.3531L56.6185 62.0682L55.6632 62.9163Z" fill="#58FFB8"/>
<path d="M62.2426 93.6199H56.6418C55.5254 93.6199 54.6219 92.7174 54.6219 91.6022V86.0073C54.6219 84.8922 55.5254 83.9896 56.6418 83.9896H62.2426C63.3589 83.9896 64.2623 84.8922 64.2623 86.0073V91.6022C64.2623 92.7174 63.3589 93.6199 62.2426 93.6199Z" fill="white"/>
<path d="M38.1079 41.6138H13.1882V25.3114H38.1079V41.6138Z" fill="white"/>
<path d="M38.1079 96.0195H13.1882V79.7174H38.1079V96.0195Z" fill="white"/>
<path d="M38.2804 71.1284H13.3713V54.8305H38.2804V71.1284Z" fill="#51D7FF"/>
<path d="M35.3684 54.8225L13.3713 69.2798V71.1284H16.2746L38.2804 56.6701V54.8225H35.3684Z" fill="white"/>
<path d="M36.1028 54.8225L13.3713 71.1015V71.1284H15.4831L38.2526 54.8225H36.1028Z" fill="#FF1A7F"/>
<path d="M16.1846 54.8225H13.3713V56.7351L35.2783 71.1284H38.2804V69.3448L16.1846 54.8225Z" fill="white"/>
<path d="M13.7382 54.8225H13.3713V56.0889L37.8367 71.1284H38.2804V69.909L13.7382 54.8225Z" fill="#FF1A7F"/>
<path d="M27.912 71.1284V54.8305H23.7705V71.1284H27.912Z" fill="white"/>
<path d="M13.3713 60.2304V65.915H38.2804V60.2304H13.3713Z" fill="white"/>
<path d="M13.3713 61.3978V64.7471H38.2804V61.3978H13.3713Z" fill="#FF1A7F"/>
<path d="M27.1154 71.1284V54.8305H24.5673V71.1284H27.1154Z" fill="#FF1A7F"/>
</svg>
