<svg width="24" height="18" viewBox="0 0 24 18" fill="none" xmlns="http://www.w3.org/2000/svg">
<path d="M12.0765 0.998501H12.21C13.443 1.003 19.6905 1.048 21.375 1.501C21.8842 1.63925 22.3483 1.90873 22.7207 2.28251C23.0932 2.65629 23.361 3.12128 23.4975 3.631C23.649 4.201 23.7555 4.9555 23.8275 5.734L23.8425 5.89L23.8755 6.28L23.8875 6.436C23.985 7.807 23.997 9.091 23.9985 9.3715V9.484C23.997 9.775 23.9835 11.146 23.8755 12.574L23.8635 12.7315L23.85 12.8875C23.775 13.7455 23.664 14.5975 23.4975 15.2245C23.3615 15.7344 23.0938 16.1996 22.7212 16.5735C22.3487 16.9473 21.8844 17.2167 21.375 17.3545C19.635 17.8225 13.0215 17.8555 12.105 17.857H11.892C11.4285 17.857 9.5115 17.848 7.5015 17.779L7.2465 17.77L7.116 17.764L6.8595 17.7535L6.603 17.743C4.938 17.6695 3.3525 17.551 2.622 17.353C2.11273 17.2153 1.6486 16.9462 1.27609 16.5726C0.903575 16.199 0.63577 15.7342 0.4995 15.2245C0.333 14.599 0.222 13.7455 0.147 12.8875L0.135 12.73L0.123 12.574C0.0489714 11.5576 0.0079498 10.5391 0 9.52L0 9.3355C0.003 9.013 0.015 7.8985 0.096 6.6685L0.1065 6.514L0.111 6.436L0.123 6.28L0.156 5.89L0.171 5.734C0.243 4.9555 0.3495 4.1995 0.501 3.631C0.63704 3.12107 0.904743 2.65587 1.27727 2.28202C1.6498 1.90818 2.11405 1.63884 2.6235 1.501C3.354 1.306 4.9395 1.186 6.6045 1.111L6.8595 1.1005L7.1175 1.0915L7.2465 1.087L7.503 1.0765C8.93056 1.03056 10.3587 1.00506 11.787 1H12.0765V0.998501ZM9.6 5.8135V13.0405L15.8355 9.4285L9.6 5.8135Z" fill="#462A69"/>
</svg>
